<svg width="38" height="35" viewBox="0 0 38 35" fill="none" xmlns="http://www.w3.org/2000/svg">
<path fill-rule="evenodd" clip-rule="evenodd" d="M19.2208 0.685547C8.85974 0.685547 0.467773 8.38382 0.467773 17.8884C0.467773 25.5007 5.83582 31.9302 13.2901 34.2096C14.2278 34.3601 14.5794 33.844 14.5794 33.3925C14.5794 32.9839 14.556 31.6292 14.556 30.1884C9.84427 30.9841 8.62533 29.1348 8.25027 28.1671C8.0393 27.6725 7.12509 26.1458 6.32808 25.7372C5.67173 25.4146 4.73408 24.619 6.30464 24.5975C7.78144 24.576 8.8363 25.8447 9.18792 26.3608C10.8757 28.9627 13.5714 28.2316 14.6497 27.78C14.8138 26.6618 15.3061 25.9092 15.8452 25.4791C11.6727 25.0491 7.31262 23.5653 7.31262 16.9852C7.31262 15.1144 8.03929 13.5662 9.2348 12.362C9.04727 11.9319 8.39091 10.1686 9.42233 7.80322C9.42233 7.80322 10.9929 7.35165 14.5794 9.56652C16.0796 9.17945 17.6736 8.98592 19.2677 8.98592C20.8617 8.98592 22.4557 9.17945 23.9559 9.56652C27.5424 7.33015 29.113 7.80322 29.113 7.80322C30.1444 10.1686 29.488 11.9319 29.3005 12.362C30.496 13.5662 31.2227 15.0929 31.2227 16.9852C31.2227 23.5868 26.8392 25.0491 22.6666 25.4791C23.3464 26.0167 23.9325 27.0489 23.9325 28.6617C23.9325 30.9626 23.909 32.8119 23.909 33.3925C23.909 33.844 24.2606 34.3816 25.1983 34.2096C28.921 33.0566 32.1559 30.8617 34.4477 27.9339C36.7394 25.0061 37.9726 21.4928 37.9738 17.8884C37.9738 8.38382 29.5818 0.685547 19.2208 0.685547Z" fill="#0D0C0C"/>
</svg>
