<svg width="34" height="32" viewBox="0 0 34 32" fill="none" xmlns="http://www.w3.org/2000/svg">
<path fill-rule="evenodd" clip-rule="evenodd" d="M0.275391 2.98151C0.275391 2.29721 0.571719 1.64094 1.09919 1.15707C1.62665 0.673205 2.34205 0.401371 3.088 0.401371H31.1253C31.495 0.400817 31.8612 0.467156 32.2029 0.596589C32.5445 0.726022 32.855 0.916008 33.1166 1.15567C33.3781 1.39533 33.5856 1.67996 33.727 1.99326C33.8685 2.30657 33.9412 2.64239 33.941 2.98151V28.7014C33.9414 29.0406 33.8689 29.3765 33.7276 29.69C33.5864 30.0034 33.3791 30.2883 33.1178 30.5282C32.8564 30.7681 32.546 30.9584 32.2044 31.0881C31.8628 31.2179 31.4966 31.2846 31.1269 31.2844H3.088C2.71851 31.2844 2.35265 31.2176 2.01131 31.0878C1.66997 30.9581 1.35984 30.7679 1.09864 30.5282C0.837449 30.2884 0.630306 30.0038 0.489049 29.6906C0.347792 29.3774 0.27519 29.0418 0.275391 28.7028V2.98151ZM13.6009 12.1762H18.1595V14.2763C18.8175 13.069 20.5008 11.9825 23.0303 11.9825C27.8797 11.9825 29.0289 14.3872 29.0289 18.7992V26.972H24.1214V19.8043C24.1214 17.2916 23.4634 15.8738 21.7923 15.8738C19.474 15.8738 18.5099 17.4025 18.5099 19.8043V26.972H13.6009V12.1762ZM5.18445 26.7797H10.0935V11.9825H5.18445V26.7797ZM10.7959 7.15633C10.8052 7.5419 10.7304 7.92529 10.5759 8.284C10.4215 8.6427 10.1905 8.96949 9.89646 9.24518C9.60247 9.52088 9.25141 9.73993 8.86388 9.88948C8.47635 10.039 8.06017 10.1161 7.63975 10.1161C7.21933 10.1161 6.80314 10.039 6.41561 9.88948C6.02808 9.73993 5.67702 9.52088 5.38303 9.24518C5.08904 8.96949 4.85804 8.6427 4.70358 8.284C4.54913 7.92529 4.47434 7.5419 4.48359 7.15633C4.50176 6.39949 4.84226 5.67926 5.43218 5.14989C6.02209 4.62052 6.81452 4.3241 7.63975 4.3241C8.46498 4.3241 9.2574 4.62052 9.84732 5.14989C10.4372 5.67926 10.7777 6.39949 10.7959 7.15633Z" fill="#0D0C0C"/>
</svg>
